<?xml version="1.0" encoding="utf-8"?>
<!DOCTYPE svg PUBLIC "-//W3C//DTD SVG 1.1//EN" "http://www.w3.org/Graphics/SVG/1.1/DTD/svg11.dtd">
<svg version="1.1" id="レイヤー_1" xmlns="http://www.w3.org/2000/svg" xmlns:xlink="http://www.w3.org/1999/xlink" x="0px" y="0px" width="640px" height="640px" viewBox="0 0 640 640" enable-background="new 0 0 640 640" xml:space="preserve">
<g>
<linearGradient id="SVGID_1_" gradientUnits="userSpaceOnUse" x1="0" y1="-2.182787e-011" x2="1" y2="-2.182787e-011" gradientTransform="matrix(2.873382e-008 640 640 -2.873382e-008 320 0)">
<stop offset="0" style="stop-color:#E89600"/>
<stop offset="1" style="stop-color:#C60000"/>
</linearGradient>
<rect fill="url(#SVGID_1_)" width="640" height="640"/>
</g>
<g>
<path fill="#FFFFFF" d="M349.066,540.252c48.085-0.066,65.453-0.779,75.739-11.486c7.221-7.519,7.541-17.192,7.22-25.714V460.18
l-20.424,13.654c-23.881,15.964-153.741,92.908-292.897,110.626v-52.13c101.928-18.728,171.539-37.355,258.183-86.366
c-97.319,12.85-186.417,21.88-258.183,24.674v-53.043c2.185,0.007,4.455,0.011,6.788,0.011c17.503,0,35.701-0.195,48.679-0.521
l12.798-0.321V91.509h84.663l3.934-5.36c4.276-5.826,13.549-21.041,19.515-33.149h75.68c-2.015,3.611-4.156,7.302-6.2,10.824
c-1.622,2.797-3.202,5.52-4.658,8.093l-11.084,19.592h139.216v256.919c0,0,29.193-33.839,33.258-38.282v72.545
c-1.152,1.327-2.325,2.688-3.532,4.088c-7.641,8.863-16.301,18.907-24.409,25.856l-4.605,3.946l0.02,6.066
c0.09,27.159,0.163,71.623-0.017,75.689c-0.619,9.108-0.867,17.554-1.085,25.007c-0.836,28.513-1.661,40.393-13.858,48.149
c-15.209,9.671-48.685,14.066-111.134,14.47L349.066,540.252z M241.232,414.53c0,0,31.774,0.303,94.23-4.449
c53.679-4.084,96.563-10.854,96.563-10.854v-50.41H241.232V414.53z M241.232,307.682h190.793v-62.139H241.232V307.682z
M241.232,205.284h190.793v-63.889H241.232V205.284z"/>
</g>
<path fill="#A40000" d="M0,640h620h20v-20V0H0V640z M19,21h601v599H19L19,21z"/>
</svg>
